<svg id="svg" version="1.1" xmlns="http://www.w3.org/2000/svg" xmlns:xlink="http://www.w3.org/1999/xlink" width="400" height="316.6077738515901" viewBox="0, 0, 400,316.6077738515901"><g id="svgg"><path id="path0" d="M238.936 0.380 C 234.382 2.066,232.118 7.472,234.106 11.913 C 234.668 13.169,237.653 16.187,302.959 81.524 L 371.225 149.823 189.289 149.823 C 25.511 149.823,7.234 149.855,6.150 150.137 C -2.457 152.378,-1.824 165.146,6.966 166.584 C 7.752 166.713,71.948 166.783,189.701 166.783 L 371.225 166.784 302.856 235.184 C 240.818 297.250,234.445 303.685,234.033 304.677 C 232.180 309.144,233.888 313.907,238.049 315.879 C 239.997 316.802,243.579 316.820,245.432 315.916 C 247.300 315.004,398.440 163.875,399.319 162.039 C 400.227 160.144,400.192 156.363,399.251 154.463 C 398.267 152.480,247.321 1.579,245.432 0.691 C 243.805 -0.074,240.577 -0.229,238.936 0.380 " stroke="none" fill="#a4c444" fill-rule="evenodd"></path><path id="path1" d="" stroke="none" fill="#a8c444" fill-rule="evenodd"></path><path id="path2" d="" stroke="none" fill="#a8c444" fill-rule="evenodd"></path><path id="path3" d="" stroke="none" fill="#a8c444" fill-rule="evenodd"></path><path id="path4" d="" stroke="none" fill="#a8c444" fill-rule="evenodd"></path></g></svg>