<svg id="svg" version="1.1" xmlns="http://www.w3.org/2000/svg" xmlns:xlink="http://www.w3.org/1999/xlink" width="400" height="184.64626191670848" viewBox="0, 0, 400,184.64626191670848"><g id="svgg"><path id="path0" d="M300.092 20.957 C 263.396 24.887,235.931 55.440,235.927 92.336 C 235.924 116.469,246.639 136.941,266.932 151.574 C 277.706 159.343,292.741 164.001,307.202 164.051 C 356.614 164.219,391.282 116.075,375.466 69.252 C 364.809 37.705,333.147 17.417,300.092 20.957 " stroke="none" fill="#ebecf3" fill-rule="evenodd"></path><path id="path1" d="M71.602 0.205 C 67.677 0.585,60.847 1.808,60.582 2.178 C 60.526 2.256,60.023 2.431,59.464 2.566 C 57.628 3.009,53.370 4.449,53.370 4.627 C 53.370 4.723,53.263 4.801,53.132 4.801 C 52.448 4.801,44.411 8.603,43.583 9.319 C 43.430 9.450,42.682 9.905,41.921 10.330 C 41.159 10.754,40.452 11.203,40.351 11.329 C 40.249 11.454,39.780 11.779,39.309 12.053 C 38.196 12.698,34.711 15.290,33.479 16.388 C 32.949 16.860,32.342 17.340,32.129 17.454 C 31.915 17.568,31.393 18.010,30.967 18.435 C 30.542 18.861,29.030 20.351,27.608 21.746 C 26.187 23.141,24.641 24.756,24.174 25.334 C 23.707 25.911,23.063 26.605,22.743 26.874 C 22.423 27.144,22.161 27.450,22.161 27.554 C 22.161 27.658,21.761 28.211,21.272 28.784 C 20.230 30.004,18.652 32.063,18.652 32.202 C 18.652 32.255,18.436 32.531,18.172 32.816 C 17.908 33.101,17.424 33.792,17.095 34.352 C 16.767 34.913,16.279 35.608,16.011 35.896 C 15.743 36.185,15.470 36.593,15.404 36.802 C 15.337 37.011,15.002 37.621,14.659 38.157 C 14.316 38.694,14.035 39.213,14.035 39.311 C 14.035 39.409,13.951 39.517,13.849 39.551 C 13.631 39.624,11.828 42.913,10.627 45.429 C 10.167 46.394,9.544 47.649,9.244 48.217 C 8.698 49.247,7.205 52.941,7.203 53.263 C 7.203 53.357,7.085 53.565,6.943 53.725 C 6.661 54.041,4.801 59.529,4.801 60.043 C 4.801 60.216,4.723 60.385,4.628 60.419 C 4.365 60.512,2.410 68.136,2.403 69.098 C 2.402 69.267,2.323 69.434,2.228 69.468 C 1.853 69.602,0.566 78.731,0.189 83.934 C -0.494 93.365,0.906 114.683,2.243 115.205 C 2.330 115.239,2.401 115.420,2.401 115.607 C 2.401 116.525,4.389 124.332,4.650 124.438 C 4.733 124.472,4.802 124.597,4.802 124.715 C 4.802 125.059,6.627 130.593,6.815 130.819 C 6.908 130.932,7.331 131.939,7.755 133.056 C 8.179 134.174,8.723 135.462,8.963 135.919 C 9.204 136.376,9.860 137.705,10.422 138.873 C 11.892 141.932,13.583 145.032,13.826 145.113 C 13.941 145.152,14.038 145.280,14.042 145.399 C 14.056 145.868,18.171 152.170,18.463 152.170 C 18.567 152.170,18.652 152.274,18.652 152.401 C 18.652 152.528,19.026 153.108,19.483 153.690 C 19.940 154.272,20.314 154.796,20.314 154.853 C 20.314 154.911,20.616 155.266,20.986 155.642 C 21.355 156.018,21.798 156.553,21.971 156.832 C 22.755 158.098,31.409 166.934,32.350 167.428 C 32.520 167.517,33.060 167.948,33.550 168.386 C 34.764 169.470,37.949 171.856,38.966 172.443 C 39.423 172.707,39.978 173.098,40.199 173.312 C 40.421 173.525,40.836 173.819,41.123 173.965 C 41.409 174.111,42.359 174.666,43.233 175.198 C 44.923 176.228,50.381 179.005,51.154 179.229 C 51.408 179.302,52.198 179.632,52.909 179.962 C 54.306 180.610,57.616 181.719,59.326 182.112 C 59.910 182.246,60.388 182.413,60.388 182.483 C 60.388 182.702,64.023 183.474,68.329 184.170 L 70.822 184.572 198.430 184.632 C 290.862 184.676,326.675 184.636,328.347 184.488 C 332.219 184.144,339.309 182.871,339.612 182.465 C 339.663 182.397,340.286 182.187,340.997 181.999 C 343.248 181.404,346.526 180.274,346.595 180.068 C 346.631 179.960,346.773 179.871,346.910 179.871 C 347.305 179.871,351.613 178.056,351.801 177.811 C 351.851 177.744,352.686 177.312,353.655 176.850 C 354.625 176.388,355.735 175.794,356.123 175.531 C 356.511 175.267,357.422 174.716,358.147 174.306 C 358.871 173.896,359.609 173.405,359.786 173.216 C 359.963 173.027,360.378 172.743,360.709 172.585 C 361.468 172.224,365.345 169.371,366.205 168.541 C 366.560 168.197,367.195 167.672,367.615 167.373 C 368.383 166.827,368.710 166.523,371.930 163.373 C 375.169 160.204,378.243 156.694,380.366 153.740 C 380.950 152.927,381.535 152.152,381.666 152.018 C 382.038 151.635,383.010 150.182,383.010 150.009 C 383.010 149.923,383.280 149.526,383.610 149.125 C 384.210 148.397,385.780 145.773,385.780 145.497 C 385.780 145.417,385.938 145.203,386.132 145.021 C 386.739 144.450,390.582 136.980,390.582 136.370 C 390.582 136.223,390.657 136.103,390.749 136.103 C 390.922 136.103,391.693 134.339,392.445 132.225 C 392.680 131.565,392.938 130.997,393.019 130.964 C 393.168 130.901,395.199 124.730,395.199 124.341 C 395.199 124.225,395.277 124.103,395.373 124.069 C 395.534 124.012,396.714 119.552,397.246 116.990 C 397.372 116.380,397.543 115.793,397.625 115.684 C 398.161 114.974,399.434 105.334,399.817 99.077 C 400.381 89.895,399.041 71.529,397.620 68.944 C 397.518 68.758,397.213 67.608,396.944 66.390 C 396.281 63.390,395.534 60.678,395.350 60.603 C 395.267 60.569,395.199 60.445,395.199 60.327 C 395.199 59.853,393.131 53.740,392.971 53.740 C 392.876 53.740,392.798 53.653,392.798 53.547 C 392.798 53.249,390.943 48.599,390.798 48.534 C 390.727 48.502,390.306 47.619,389.862 46.572 C 389.417 45.525,388.853 44.373,388.609 44.012 C 388.364 43.651,387.802 42.638,387.360 41.761 C 386.918 40.884,386.382 39.967,386.169 39.722 C 385.955 39.478,385.780 39.210,385.780 39.126 C 385.780 39.042,385.489 38.518,385.134 37.963 C 384.778 37.407,384.488 36.880,384.488 36.792 C 384.488 36.704,384.202 36.311,383.853 35.919 C 383.504 35.527,383.028 34.835,382.795 34.383 C 382.562 33.930,382.141 33.312,381.860 33.011 C 381.578 32.710,381.348 32.420,381.348 32.367 C 381.348 32.225,379.485 29.695,379.097 29.311 C 378.915 29.130,378.424 28.520,378.007 27.955 C 377.590 27.390,376.924 26.635,376.528 26.277 C 376.132 25.919,375.809 25.532,375.810 25.417 C 375.811 25.302,375.292 24.698,374.656 24.076 C 374.020 23.453,373.206 22.622,372.847 22.229 C 371.918 21.211,367.903 17.487,367.496 17.267 C 367.309 17.165,366.743 16.708,366.239 16.251 C 365.082 15.201,361.731 12.720,360.757 12.191 C 360.351 11.970,359.935 11.686,359.834 11.559 C 359.161 10.716,351.532 6.605,348.292 5.339 C 347.428 5.002,346.679 4.665,346.626 4.590 C 346.519 4.439,343.515 3.448,341.090 2.763 C 340.226 2.519,339.478 2.265,339.428 2.199 C 339.235 1.948,335.021 1.088,331.117 0.503 L 328.440 0.102 200.831 0.075 C 130.646 0.061,72.493 0.119,71.602 0.205 M316.343 20.946 C 332.628 23.048,347.008 30.100,358.544 41.639 C 368.303 51.401,375.320 64.432,378.038 77.839 C 383.835 106.436,371.938 135.626,347.830 151.959 C 322.216 169.313,288.053 168.266,263.676 149.381 C 238.408 129.806,228.998 96.232,240.442 66.482 C 250.419 40.546,274.302 22.813,302.216 20.614 C 304.499 20.435,314.132 20.661,316.343 20.946 " stroke="none" fill="#3ceb34" fill-rule="evenodd"></path><path id="path2" d="M235.715 92.428 C 235.715 93.850,235.744 94.408,235.779 93.667 C 235.814 92.926,235.814 91.763,235.778 91.081 C 235.743 90.400,235.714 91.006,235.715 92.428 " stroke="none" fill="#94ec94" fill-rule="evenodd"></path><path id="path3" d="M355.309 38.689 C 355.654 39.044,355.977 39.335,356.028 39.335 C 356.079 39.335,355.839 39.044,355.494 38.689 C 355.149 38.333,354.826 38.042,354.775 38.042 C 354.724 38.042,354.965 38.333,355.309 38.689 M256.599 41.597 L 254.755 43.490 256.648 41.647 C 258.406 39.935,258.625 39.705,258.491 39.705 C 258.464 39.705,257.612 40.556,256.599 41.597 M358.356 41.551 C 359.266 42.465,360.052 43.213,360.103 43.213 C 360.154 43.213,359.451 42.465,358.541 41.551 C 357.631 40.637,356.845 39.889,356.794 39.889 C 356.744 39.889,357.447 40.637,358.356 41.551 M361.219 44.598 C 361.563 44.954,361.887 45.245,361.938 45.245 C 361.988 45.245,361.748 44.954,361.404 44.598 C 361.059 44.243,360.735 43.952,360.685 43.952 C 360.634 43.952,360.874 44.243,361.219 44.598 M372.682 61.958 C 372.682 62.059,372.800 62.350,372.946 62.604 C 373.091 62.858,373.209 62.982,373.209 62.881 C 373.209 62.779,373.091 62.488,372.946 62.235 C 372.800 61.981,372.682 61.856,372.682 61.958 M235.685 89.381 C 235.685 89.737,235.723 89.882,235.769 89.705 C 235.815 89.527,235.815 89.236,235.769 89.058 C 235.723 88.880,235.685 89.026,235.685 89.381 M379.388 92.336 C 379.388 93.606,379.417 94.125,379.453 93.490 C 379.490 92.855,379.490 91.817,379.453 91.182 C 379.417 90.547,379.388 91.066,379.388 92.336 M235.685 95.476 C 235.685 95.831,235.723 95.976,235.769 95.799 C 235.815 95.621,235.815 95.330,235.769 95.152 C 235.723 94.975,235.685 95.120,235.685 95.476 M255.032 141.551 C 255.377 141.907,255.700 142.198,255.751 142.198 C 255.802 142.198,255.562 141.907,255.217 141.551 C 254.872 141.196,254.549 140.905,254.498 140.905 C 254.447 140.905,254.688 141.196,255.032 141.551 M359.456 142.059 L 358.726 142.844 359.511 142.114 C 360.241 141.435,360.380 141.274,360.241 141.274 C 360.210 141.274,359.857 141.627,359.456 142.059 M357.055 144.460 L 356.325 145.245 357.110 144.515 C 357.840 143.836,357.980 143.675,357.840 143.675 C 357.810 143.675,357.457 144.028,357.055 144.460 M306.225 164.310 C 306.906 164.346,308.069 164.346,308.810 164.311 C 309.551 164.276,308.994 164.247,307.572 164.246 C 306.150 164.246,305.543 164.275,306.225 164.310 " stroke="none" fill="#81ec7e" fill-rule="evenodd"></path><path id="path4" d="M306.241 20.636 C 307.033 20.671,308.279 20.671,309.011 20.636 C 309.743 20.601,309.095 20.572,307.572 20.572 C 306.048 20.573,305.449 20.601,306.241 20.636 M279.594 26.131 C 279.340 26.276,279.215 26.395,279.317 26.395 C 279.418 26.395,279.709 26.276,279.963 26.131 C 280.217 25.986,280.342 25.867,280.240 25.867 C 280.139 25.867,279.848 25.986,279.594 26.131 M260.284 38.273 L 259.741 38.873 260.342 38.331 C 260.901 37.826,261.027 37.673,260.884 37.673 C 260.852 37.673,260.582 37.943,260.284 38.273 M258.257 40.120 L 257.341 41.090 258.310 40.173 C 258.843 39.669,259.280 39.233,259.280 39.204 C 259.280 39.066,259.109 39.219,258.257 40.120 M356.879 40.259 C 357.379 40.766,357.830 41.182,357.881 41.182 C 357.932 41.182,357.564 40.766,357.064 40.259 C 356.563 39.751,356.113 39.335,356.062 39.335 C 356.011 39.335,356.379 39.751,356.879 40.259 M359.557 42.936 C 360.108 43.495,360.601 43.952,360.652 43.952 C 360.703 43.952,360.293 43.495,359.741 42.936 C 359.190 42.378,358.697 41.921,358.646 41.921 C 358.595 41.921,359.005 42.378,359.557 42.936 M255.032 43.306 C 254.584 43.763,254.258 44.137,254.309 44.137 C 254.360 44.137,254.768 43.763,255.217 43.306 C 255.666 42.849,255.991 42.475,255.940 42.475 C 255.889 42.475,255.481 42.849,255.032 43.306 M371.099 59.095 C 371.256 59.400,371.427 59.649,371.478 59.649 C 371.528 59.649,371.441 59.400,371.283 59.095 C 371.126 58.790,370.955 58.541,370.905 58.541 C 370.854 58.541,370.941 58.790,371.099 59.095 M360.376 140.951 L 359.834 141.551 360.434 141.009 C 360.993 140.503,361.119 140.351,360.976 140.351 C 360.945 140.351,360.675 140.621,360.376 140.951 M256.602 143.121 C 256.999 143.527,257.365 143.860,257.416 143.860 C 257.466 143.860,257.183 143.527,256.787 143.121 C 256.390 142.715,256.024 142.382,255.973 142.382 C 255.922 142.382,256.205 142.715,256.602 143.121 M356.411 144.922 L 355.402 145.983 356.464 144.974 C 357.450 144.036,357.610 143.860,357.473 143.860 C 357.444 143.860,356.966 144.337,356.411 144.922 M260.388 146.503 C 260.388 146.535,260.658 146.805,260.988 147.103 L 261.588 147.645 261.046 147.045 C 260.540 146.486,260.388 146.360,260.388 146.503 M303.463 164.121 C 303.742 164.164,304.199 164.164,304.478 164.121 C 304.758 164.079,304.529 164.044,303.970 164.044 C 303.412 164.044,303.183 164.079,303.463 164.121 M310.665 164.121 C 310.944 164.164,311.401 164.164,311.681 164.121 C 311.960 164.079,311.731 164.044,311.173 164.044 C 310.614 164.044,310.386 164.079,310.665 164.121 " stroke="none" fill="#a4eca4" fill-rule="evenodd"></path></g></svg>