<svg id="svg" version="1.1" xmlns="http://www.w3.org/2000/svg" xmlns:xlink="http://www.w3.org/1999/xlink" width="400" height="184.75336322869956" viewBox="0, 0, 400,184.75336322869956"><g id="svgg"><path id="path0" d="M86.184 20.882 C 61.532 23.252,40.640 37.066,29.056 58.656 C 17.023 81.084,18.035 109.241,31.643 130.624 C 56.505 169.690,110.473 175.732,143.103 143.103 C 160.813 125.393,167.683 101.586,162.380 76.305 C 158.057 55.694,141.705 35.597,122.402 27.172 C 121.386 26.729,120.097 26.157,119.538 25.903 C 115.299 23.971,107.812 22.053,100.913 21.131 C 98.392 20.794,88.786 20.631,86.184 20.882 " stroke="none" fill="#ebebf3" fill-rule="evenodd"></path><path id="path1" d="M71.686 0.207 C 66.902 0.689,61.481 1.724,59.215 2.589 C 58.707 2.782,57.210 3.280,55.889 3.695 C 54.568 4.109,52.905 4.729,52.194 5.071 C 51.483 5.414,50.152 6.006,49.238 6.387 C 48.323 6.768,47.367 7.222,47.113 7.396 C 46.859 7.570,45.945 8.080,45.081 8.531 C 44.217 8.981,42.928 9.724,42.217 10.183 C 41.506 10.641,40.520 11.248,40.027 11.532 C 39.534 11.815,38.980 12.198,38.796 12.382 C 38.612 12.566,38.014 13.003,37.468 13.352 C 36.922 13.701,35.813 14.523,35.004 15.178 C 34.195 15.833,33.338 16.503,33.100 16.667 C 31.999 17.424,25.087 24.140,24.167 25.346 C 23.893 25.706,23.353 26.334,22.966 26.743 C 22.063 27.698,18.106 32.796,18.106 33.005 C 18.106 33.093,17.820 33.485,17.470 33.878 C 17.121 34.271,16.707 34.853,16.550 35.171 C 16.393 35.490,16.035 36.092,15.754 36.509 C 14.405 38.511,14.111 38.987,13.430 40.277 C 13.027 41.039,12.629 41.708,12.544 41.762 C 12.460 41.817,11.882 42.898,11.261 44.164 C 10.639 45.431,9.974 46.758,9.784 47.113 C 9.593 47.469,9.195 48.342,8.898 49.053 C 8.602 49.764,7.982 51.219,7.521 52.286 C 7.060 53.353,6.325 55.307,5.887 56.628 C 5.449 57.949,5.043 59.072,4.985 59.122 C 4.803 59.283,3.943 62.340,3.244 65.312 C 2.981 66.430,2.697 67.469,2.613 67.621 C 2.529 67.774,2.475 68.085,2.493 68.314 C 2.510 68.543,2.465 68.730,2.392 68.730 C 2.128 68.730,1.008 75.640,0.444 80.739 C -0.627 90.431,0.345 109.127,2.265 115.751 C 2.383 116.157,2.490 116.573,2.504 116.674 C 2.518 116.776,2.581 116.984,2.644 117.136 C 2.706 117.289,3.050 118.619,3.408 120.092 C 4.257 123.584,4.797 125.513,4.959 125.632 C 5.031 125.684,5.497 126.963,5.994 128.472 C 6.491 129.982,7.124 131.686,7.401 132.260 C 7.678 132.833,8.135 133.885,8.417 134.596 C 8.965 135.984,9.768 137.707,10.354 138.753 C 10.552 139.109,11.094 140.187,11.558 141.151 C 12.021 142.114,12.468 142.945,12.551 142.998 C 12.634 143.051,13.000 143.677,13.365 144.388 C 14.272 146.153,14.834 147.124,15.077 147.344 C 15.189 147.446,15.681 148.194,16.171 149.007 C 16.661 149.820,17.259 150.702,17.500 150.966 C 17.742 151.231,18.081 151.706,18.254 152.022 C 18.690 152.820,21.946 156.925,23.277 158.356 C 23.883 159.006,24.380 159.593,24.383 159.661 C 24.398 160.012,31.645 166.976,33.539 168.458 C 34.151 168.938,34.816 169.482,35.017 169.668 C 35.588 170.198,37.581 171.629,37.755 171.635 C 37.841 171.638,38.267 171.953,38.703 172.337 C 39.138 172.720,39.968 173.281,40.547 173.584 C 41.126 173.886,41.753 174.277,41.942 174.453 C 42.362 174.844,43.309 175.366,48.111 177.860 C 48.731 178.181,49.903 178.713,50.716 179.042 C 51.529 179.370,52.236 179.702,52.287 179.779 C 52.451 180.028,58.290 181.986,58.868 181.986 C 59.008 181.986,59.122 182.056,59.122 182.142 C 59.122 182.466,65.112 183.770,69.192 184.333 C 72.946 184.852,327.077 184.850,330.808 184.331 C 334.897 183.763,341.062 182.462,341.062 182.168 C 341.062 182.084,341.330 181.957,341.657 181.885 C 342.821 181.629,347.261 180.104,347.806 179.773 C 348.111 179.588,349.316 179.044,350.485 178.565 C 351.654 178.086,352.833 177.536,353.106 177.342 C 353.378 177.148,354.410 176.569,355.399 176.055 C 356.387 175.541,357.660 174.806,358.228 174.421 C 358.796 174.036,359.746 173.440,360.340 173.096 C 360.933 172.752,361.497 172.326,361.594 172.148 C 361.690 171.970,361.858 171.824,361.968 171.824 C 362.230 171.824,364.097 170.488,365.418 169.355 C 365.995 168.860,366.758 168.269,367.113 168.041 C 367.469 167.813,367.968 167.384,368.222 167.088 C 368.476 166.791,369.138 166.177,369.694 165.723 C 370.806 164.812,373.706 161.921,375.150 160.282 C 375.658 159.705,376.452 158.845,376.915 158.370 C 377.378 157.895,378.021 157.119,378.344 156.645 C 378.667 156.172,379.183 155.534,379.489 155.228 C 379.795 154.921,380.046 154.627,380.046 154.574 C 380.046 154.472,381.567 152.357,382.322 151.409 C 382.565 151.104,383.186 150.171,383.702 149.336 C 384.217 148.501,384.812 147.633,385.022 147.408 C 385.232 147.182,385.404 146.931,385.404 146.851 C 385.404 146.770,385.737 146.161,386.143 145.497 C 386.550 144.832,386.882 144.213,386.882 144.121 C 386.882 144.028,387.008 143.827,387.161 143.674 C 387.435 143.400,389.466 139.443,389.472 139.170 C 389.474 139.093,389.703 138.695,389.980 138.285 C 390.258 137.875,390.897 136.503,391.401 135.236 C 391.905 133.970,392.405 132.843,392.513 132.732 C 392.620 132.622,393.206 131.042,393.814 129.222 C 394.422 127.401,394.970 125.871,395.031 125.820 C 395.189 125.690,396.186 122.229,396.760 119.815 C 397.026 118.697,397.320 117.644,397.413 117.474 C 397.913 116.564,399.280 107.893,399.724 102.818 C 400.658 92.128,399.301 71.264,397.415 67.344 C 397.318 67.141,396.995 65.977,396.699 64.758 C 395.988 61.833,395.196 59.056,395.040 58.939 C 394.972 58.887,394.418 57.355,393.810 55.534 C 393.202 53.713,392.613 52.131,392.501 52.020 C 392.390 51.908,392.123 51.361,391.909 50.804 C 390.910 48.205,390.165 46.538,389.811 46.109 C 389.722 46.001,389.141 44.873,388.518 43.603 C 387.896 42.333,387.323 41.252,387.246 41.201 C 387.168 41.150,386.899 40.734,386.647 40.277 C 385.211 37.668,384.945 37.212,384.758 37.044 C 384.529 36.839,383.788 35.666,383.375 34.858 C 383.229 34.570,382.878 34.071,382.597 33.749 C 382.315 33.427,381.855 32.816,381.574 32.390 C 380.358 30.551,377.490 27.052,374.733 24.045 C 372.772 21.905,372.302 21.436,370.542 19.861 C 369.633 19.048,368.585 18.072,368.214 17.691 C 367.843 17.309,367.481 16.998,367.411 16.998 C 367.305 16.998,365.921 15.899,364.857 14.970 C 364.726 14.856,364.037 14.353,363.326 13.853 C 362.614 13.353,361.680 12.672,361.248 12.338 C 360.817 12.005,360.235 11.607,359.955 11.455 C 359.166 11.025,357.978 10.286,357.875 10.161 C 357.723 9.976,354.887 8.412,354.015 8.033 C 353.568 7.838,353.110 7.588,352.998 7.476 C 352.790 7.269,350.164 6.047,348.592 5.427 C 348.110 5.237,347.715 5.029,347.714 4.966 C 347.714 4.903,346.238 4.375,344.434 3.792 C 342.630 3.210,340.885 2.619,340.555 2.479 C 339.027 1.829,333.128 0.706,329.012 0.281 C 325.935 -0.037,74.824 -0.109,71.686 0.207 M101.339 20.947 C 148.151 27.204,176.502 74.995,159.372 118.771 C 139.625 169.230,73.318 180.261,37.586 139.030 C 17.961 116.385,14.908 82.315,30.169 56.259 C 42.011 36.041,62.542 22.920,85.815 20.698 C 88.520 20.440,98.775 20.604,101.339 20.947 " stroke="none" fill="#acacb4" fill-rule="evenodd"></path><path id="path2" d="M90.577 20.646 C 91.568 20.679,93.189 20.679,94.180 20.646 C 95.171 20.613,94.360 20.585,92.379 20.585 C 90.397 20.585,89.587 20.613,90.577 20.646 M86.328 20.825 C 86.607 20.868,87.065 20.868,87.344 20.825 C 87.624 20.783,87.395 20.748,86.836 20.748 C 86.277 20.748,86.048 20.783,86.328 20.825 M97.413 20.825 C 97.693 20.868,98.150 20.868,98.430 20.825 C 98.709 20.783,98.480 20.748,97.921 20.748 C 97.363 20.748,97.134 20.783,97.413 20.825 M84.480 21.005 C 84.658 21.051,84.949 21.051,85.127 21.005 C 85.305 20.958,85.159 20.920,84.804 20.920 C 84.448 20.920,84.303 20.958,84.480 21.005 M99.630 21.005 C 99.808 21.051,100.099 21.051,100.277 21.005 C 100.455 20.958,100.309 20.920,99.954 20.920 C 99.598 20.920,99.453 20.958,99.630 21.005 M83.002 21.190 C 83.180 21.236,83.471 21.236,83.649 21.190 C 83.827 21.143,83.681 21.105,83.326 21.105 C 82.970 21.105,82.824 21.143,83.002 21.190 M101.109 21.190 C 101.286 21.236,101.577 21.236,101.755 21.190 C 101.933 21.143,101.788 21.105,101.432 21.105 C 101.076 21.105,100.931 21.143,101.109 21.190 M140.231 38.891 C 140.576 39.247,140.899 39.538,140.950 39.538 C 141.001 39.538,140.760 39.247,140.416 38.891 C 140.071 38.536,139.747 38.245,139.697 38.245 C 139.646 38.245,139.886 38.536,140.231 38.891 M44.053 39.215 L 43.510 39.815 44.111 39.273 C 44.671 38.767,44.796 38.614,44.654 38.614 C 44.622 38.614,44.351 38.885,44.053 39.215 M143.095 41.570 C 143.698 42.180,144.233 42.679,144.284 42.679 C 144.335 42.679,143.883 42.180,143.279 41.570 C 142.676 40.961,142.141 40.462,142.090 40.462 C 142.039 40.462,142.491 40.961,143.095 41.570 M39.249 44.018 L 38.707 44.619 39.307 44.076 C 39.867 43.570,39.993 43.418,39.850 43.418 C 39.818 43.418,39.548 43.688,39.249 44.018 M145.774 44.434 C 146.118 44.790,146.442 45.081,146.493 45.081 C 146.544 45.081,146.303 44.790,145.958 44.434 C 145.614 44.079,145.290 43.788,145.239 43.788 C 145.188 43.788,145.429 44.079,145.774 44.434 M28.453 59.492 C 28.245 59.898,28.117 60.231,28.168 60.231 C 28.219 60.231,28.430 59.898,28.637 59.492 C 28.845 59.085,28.973 58.753,28.922 58.753 C 28.871 58.753,28.660 59.085,28.453 59.492 M163.553 83.141 C 163.553 83.497,163.591 83.642,163.638 83.464 C 163.684 83.286,163.684 82.995,163.638 82.818 C 163.591 82.640,163.553 82.785,163.553 83.141 M163.738 84.434 C 163.738 84.790,163.776 84.935,163.823 84.758 C 163.869 84.580,163.869 84.289,163.823 84.111 C 163.776 83.933,163.738 84.079,163.738 84.434 M20.920 84.988 C 20.920 85.344,20.958 85.490,21.005 85.312 C 21.051 85.134,21.051 84.843,21.005 84.665 C 20.958 84.487,20.920 84.633,20.920 84.988 M163.923 86.097 C 163.923 86.453,163.961 86.598,164.007 86.420 C 164.054 86.242,164.054 85.952,164.007 85.774 C 163.961 85.596,163.923 85.741,163.923 86.097 M20.746 87.113 C 20.747 87.621,20.783 87.807,20.825 87.526 C 20.868 87.245,20.867 86.830,20.823 86.603 C 20.779 86.375,20.744 86.605,20.746 87.113 M164.108 88.684 C 164.108 89.039,164.146 89.185,164.192 89.007 C 164.238 88.829,164.238 88.538,164.192 88.360 C 164.146 88.182,164.108 88.328,164.108 88.684 M20.585 92.379 C 20.585 94.259,20.612 95.028,20.646 94.088 C 20.679 93.148,20.679 91.610,20.646 90.670 C 20.612 89.730,20.585 90.499,20.585 92.379 M20.748 97.737 C 20.748 98.296,20.783 98.524,20.825 98.245 C 20.868 97.965,20.868 97.508,20.825 97.229 C 20.783 96.949,20.748 97.178,20.748 97.737 M163.923 98.661 C 163.923 99.016,163.961 99.162,164.007 98.984 C 164.054 98.806,164.054 98.515,164.007 98.337 C 163.961 98.159,163.923 98.305,163.923 98.661 M20.920 99.769 C 20.920 100.125,20.958 100.270,21.005 100.092 C 21.051 99.915,21.051 99.624,21.005 99.446 C 20.958 99.268,20.920 99.413,20.920 99.769 M21.105 101.432 C 21.105 101.788,21.143 101.933,21.190 101.755 C 21.236 101.577,21.236 101.286,21.190 101.109 C 21.143 100.931,21.105 101.076,21.105 101.432 M28.915 126.189 C 29.072 126.494,29.243 126.744,29.294 126.744 C 29.344 126.744,29.257 126.494,29.099 126.189 C 28.942 125.885,28.771 125.635,28.720 125.635 C 28.669 125.635,28.757 125.885,28.915 126.189 M146.039 140.092 L 145.497 140.693 146.097 140.150 C 146.427 139.852,146.697 139.582,146.697 139.550 C 146.697 139.407,146.545 139.533,146.039 140.092 M38.430 139.919 C 38.430 139.951,38.700 140.221,39.030 140.520 L 39.630 141.062 39.088 140.462 C 38.582 139.902,38.430 139.777,38.430 139.919 M143.183 143.141 L 141.432 144.942 143.233 143.191 C 144.224 142.227,145.035 141.417,145.035 141.389 C 145.035 141.255,144.810 141.468,143.183 143.141 M41.478 143.187 C 41.979 143.695,42.430 144.111,42.480 144.111 C 42.531 144.111,42.163 143.695,41.663 143.187 C 41.162 142.679,40.711 142.263,40.661 142.263 C 40.610 142.263,40.978 142.679,41.478 143.187 M44.249 145.774 C 44.646 146.180,45.013 146.513,45.063 146.513 C 45.114 146.513,44.831 146.180,44.434 145.774 C 44.037 145.367,43.671 145.035,43.620 145.035 C 43.569 145.035,43.853 145.367,44.249 145.774 M139.942 146.189 L 139.400 146.790 140.000 146.247 C 140.330 145.949,140.600 145.679,140.600 145.647 C 140.600 145.504,140.448 145.630,139.942 146.189 M84.111 163.823 C 84.289 163.869,84.580 163.869,84.758 163.823 C 84.935 163.776,84.790 163.738,84.434 163.738 C 84.079 163.738,83.933 163.776,84.111 163.823 M85.774 164.007 C 85.952 164.054,86.242 164.054,86.420 164.007 C 86.598 163.961,86.453 163.923,86.097 163.923 C 85.741 163.923,85.596 163.961,85.774 164.007 M98.337 164.007 C 98.515 164.054,98.806 164.054,98.984 164.007 C 99.162 163.961,99.016 163.923,98.661 163.923 C 98.305 163.923,98.159 163.961,98.337 164.007 M88.360 164.192 C 88.538 164.238,88.829 164.238,89.007 164.192 C 89.185 164.146,89.039 164.108,88.684 164.108 C 88.328 164.108,88.182 164.146,88.360 164.192 " stroke="none" fill="#d4d4d9" fill-rule="evenodd"></path><path id="path3" d="M41.471 41.617 L 40.554 42.587 41.524 41.670 C 42.426 40.818,42.579 40.647,42.441 40.647 C 42.412 40.647,41.975 41.083,41.471 41.617 M140.866 145.450 L 140.323 146.051 140.924 145.508 C 141.254 145.210,141.524 144.939,141.524 144.908 C 141.524 144.765,141.372 144.891,140.866 145.450 " stroke="none" fill="#ccccd1" fill-rule="evenodd"></path><path id="path4" d="M87.716 20.639 C 87.946 20.683,88.278 20.681,88.455 20.635 C 88.631 20.589,88.443 20.553,88.037 20.555 C 87.630 20.557,87.486 20.595,87.716 20.639 M96.397 20.638 C 96.626 20.683,97.000 20.683,97.229 20.638 C 97.457 20.594,97.270 20.558,96.813 20.558 C 96.356 20.558,96.169 20.594,96.397 20.638 M140.231 38.672 C 140.231 38.704,140.501 38.974,140.831 39.273 L 141.432 39.815 140.889 39.215 C 140.383 38.655,140.231 38.529,140.231 38.672 M43.319 39.769 L 42.402 40.739 43.372 39.822 C 44.273 38.970,44.427 38.799,44.289 38.799 C 44.259 38.799,43.823 39.236,43.319 39.769 M143.187 41.478 C 143.532 41.834,143.855 42.125,143.906 42.125 C 143.957 42.125,143.717 41.834,143.372 41.478 C 143.027 41.122,142.703 40.831,142.653 40.831 C 142.602 40.831,142.842 41.122,143.187 41.478 M39.624 43.464 L 38.707 44.434 39.677 43.517 C 40.578 42.665,40.731 42.494,40.594 42.494 C 40.564 42.494,40.128 42.931,39.624 43.464 M145.219 43.661 C 145.219 43.692,145.490 43.963,145.820 44.261 L 146.420 44.804 145.878 44.203 C 145.372 43.644,145.219 43.518,145.219 43.661 M20.558 88.129 C 20.558 88.587,20.594 88.774,20.638 88.545 C 20.683 88.316,20.683 87.942,20.638 87.714 C 20.594 87.485,20.558 87.672,20.558 88.129 M164.317 92.471 C 164.317 93.487,164.348 93.879,164.386 93.343 C 164.423 92.806,164.423 91.974,164.385 91.495 C 164.347 91.016,164.316 91.455,164.317 92.471 M20.558 96.628 C 20.558 97.085,20.594 97.273,20.638 97.044 C 20.683 96.815,20.683 96.441,20.638 96.212 C 20.594 95.984,20.558 96.171,20.558 96.628 M38.614 140.289 C 38.614 140.321,38.885 140.591,39.215 140.889 L 39.815 141.432 39.273 140.831 C 38.767 140.272,38.614 140.146,38.614 140.289 M143.271 143.233 L 142.540 144.018 143.326 143.288 C 144.056 142.609,144.196 142.448,144.056 142.448 C 144.026 142.448,143.672 142.801,143.271 143.233 M41.386 143.279 C 41.730 143.635,42.054 143.926,42.105 143.926 C 42.156 143.926,41.915 143.635,41.570 143.279 C 41.226 142.924,40.902 142.633,40.851 142.633 C 40.800 142.633,41.041 142.924,41.386 143.279 M43.418 145.092 C 43.418 145.124,43.688 145.394,44.018 145.693 L 44.619 146.236 44.076 145.635 C 43.570 145.075,43.418 144.950,43.418 145.092 M91.501 164.385 C 91.984 164.423,92.774 164.423,93.256 164.385 C 93.739 164.347,93.344 164.316,92.379 164.316 C 91.413 164.316,91.018 164.347,91.501 164.385 " stroke="none" fill="#c4c4cc" fill-rule="evenodd"></path></g></svg>