<svg id="svg" version="1.1" xmlns="http://www.w3.org/2000/svg" xmlns:xlink="http://www.w3.org/1999/xlink" width="400" height="640" viewBox="0, 0, 400,640"><g id="svgg"><path id="path0" d="M185.221 0.347 C 87.208 8.197,11.493 82.096,0.741 180.402 C 0.025 186.950,-0.080 213.976,0.579 222.329 C 8.520 323.064,60.707 445.360,151.185 575.261 C 169.367 601.366,198.491 640.000,199.987 640.000 C 201.578 640.000,231.550 600.182,250.213 573.273 C 365.770 406.661,419.168 249.554,394.009 150.201 C 370.386 56.917,280.893 -7.315,185.221 0.347 M214.940 78.537 C 252.692 83.668,284.083 103.809,304.098 135.743 C 324.513 168.317,327.988 210.547,313.212 246.495 C 290.110 302.694,228.570 333.594,169.799 318.503 C 94.828 299.252,56.249 216.084,90.090 146.667 C 109.327 107.206,145.651 82.392,190.683 77.949 C 194.152 77.607,211.122 78.018,214.940 78.537 M190.605 122.916 C 126.715 130.656,99.559 209.398,145.081 254.919 C 185.729 295.568,255.684 279.152,273.691 224.739 C 291.646 170.483,247.235 116.056,190.605 122.916 " stroke="none" fill="#a4c444" fill-rule="evenodd"></path><path id="path1" d="" stroke="none" fill="#a8c444" fill-rule="evenodd"></path><path id="path2" d="" stroke="none" fill="#a8c444" fill-rule="evenodd"></path><path id="path3" d="" stroke="none" fill="#a8c444" fill-rule="evenodd"></path><path id="path4" d="" stroke="none" fill="#a8c444" fill-rule="evenodd"></path></g></svg>